<?xml version="1.0" encoding="UTF-8" standalone="no"?>
<!DOCTYPE svg PUBLIC "-//W3C//DTD SVG 1.1//EN" "http://www.w3.org/Graphics/SVG/1.1/DTD/svg11.dtd">
<svg width="100%" height="100%" viewBox="0 0 97 78" version="1.1" xmlns="http://www.w3.org/2000/svg" xmlns:xlink="http://www.w3.org/1999/xlink" xml:space="preserve" xmlns:serif="http://www.serif.com/" style="fill-rule:evenodd;clip-rule:evenodd;stroke-linejoin:round;stroke-miterlimit:2;">
    <g transform="matrix(1,0,0,1,-344.195,-1.11022e-16)">
        <g id="Mesa-de-trabajo1" serif:id="Mesa de trabajo1" transform="matrix(0.36589,0,0,0.379636,232.994,0.529285)">
            <rect x="303.92" y="-1.394" width="265.107" height="205.131" style="fill:none;"/>
            <g transform="matrix(0.843266,0,0,0.812733,70.4586,16.9181)">
                <g transform="matrix(1,0,0,1,306.07,0.605809)">
                    <path d="M33.081,30.137L221.851,30.137C240.928,35.333 242.179,59.219 221.851,65.416L33.346,65.416C14.365,57.636 15.011,36.676 33.081,30.137Z"/>
                </g>
                <g transform="matrix(1,0,0,1,306.07,55.9237)">
                    <path d="M33.081,30.137L221.851,30.137C240.928,35.333 242.179,59.219 221.851,65.416L33.346,65.416C14.365,57.636 15.011,36.676 33.081,30.137Z"/>
                </g>
                <g transform="matrix(1,0,0,1,306.07,111.174)">
                    <path d="M33.081,30.137L221.851,30.137C240.928,35.333 242.179,59.219 221.851,65.416L33.346,65.416C14.365,57.636 15.011,36.676 33.081,30.137Z"/>
                </g>
            </g>
        </g>
    </g>
</svg>
